<?xml version="1.0" encoding="UTF-8"?>
<svg width="400px" height="400px" viewBox="0 0 400 400" version="1.1" xmlns="http://www.w3.org/2000/svg" xmlns:xlink="http://www.w3.org/1999/xlink">
    <title>Bâtiment 3D</title>
    <defs>
        <linearGradient x1="0%" y1="0%" x2="100%" y2="100%" id="gradientYellow">
            <stop stop-color="#FFD54F" offset="0%"></stop>
            <stop stop-color="#FFC107" offset="100%"></stop>
        </linearGradient>
        <linearGradient x1="0%" y1="0%" x2="100%" y2="100%" id="gradientGold">
            <stop stop-color="#FFD700" offset="0%"></stop>
            <stop stop-color="#DAA520" offset="100%"></stop>
        </linearGradient>
        <linearGradient x1="0%" y1="0%" x2="100%" y2="100%" id="gradientGlass">
            <stop stop-color="#FFECB3" stop-opacity="0.8" offset="0%"></stop>
            <stop stop-color="#FFD54F" stop-opacity="0.9" offset="100%"></stop>
        </linearGradient>
        <linearGradient x1="0%" y1="0%" x2="100%" y2="100%" id="gradientGround">
            <stop stop-color="#F5F5F5" offset="0%"></stop>
            <stop stop-color="#E0E0E0" offset="100%"></stop>
        </linearGradient>
    </defs>
    <g id="Page-1" stroke="none" stroke-width="1" fill="none" fill-rule="evenodd">
        <!-- Base du terrain -->
        <ellipse id="ground" fill="url(#gradientGround)" cx="200" cy="350" rx="150" ry="30"></ellipse>
        
        <!-- Bâtiment principal -->
        <!-- Face avant -->
        <polygon id="building-front" fill="url(#gradientYellow)" points="120,150 280,150 280,330 120,330"></polygon>
        
        <!-- Côté droit -->
        <polygon id="building-side" fill="#FFC107" points="280,150 330,120 330,300 280,330"></polygon>
        
        <!-- Toit -->
        <polygon id="building-roof" fill="url(#gradientGold)" points="120,150 280,150 330,120 170,120"></polygon>
        
        <!-- Fenêtres de la façade -->
        <g id="windows-front">
            <rect fill="url(#gradientGlass)" x="140" y="180" width="30" height="40" rx="2"></rect>
            <rect fill="url(#gradientGlass)" x="190" y="180" width="30" height="40" rx="2"></rect>
            <rect fill="url(#gradientGlass)" x="240" y="180" width="30" height="40" rx="2"></rect>
            
            <rect fill="url(#gradientGlass)" x="140" y="240" width="30" height="40" rx="2"></rect>
            <rect fill="url(#gradientGlass)" x="190" y="240" width="30" height="40" rx="2"></rect>
            <rect fill="url(#gradientGlass)" x="240" y="240" width="30" height="40" rx="2"></rect>
            
            <rect fill="url(#gradientGlass)" x="140" y="300" width="30" height="20" rx="2"></rect>
            <rect fill="url(#gradientGlass)" x="190" y="300" width="30" height="20" rx="2"></rect>
            <rect fill="url(#gradientGlass)" x="240" y="300" width="30" height="20" rx="2"></rect>
        </g>
        
        <!-- Fenêtres du côté -->
        <g id="windows-side">
            <rect fill="url(#gradientGlass)" x="290" y="175" width="20" height="35" rx="2" transform="rotate(-10 290 175)"></rect>
            <rect fill="url(#gradientGlass)" x="310" y="165" width="20" height="35" rx="2" transform="rotate(-10 310 165)"></rect>
            
            <rect fill="url(#gradientGlass)" x="290" y="235" width="20" height="35" rx="2" transform="rotate(-10 290 235)"></rect>
            <rect fill="url(#gradientGlass)" x="310" y="225" width="20" height="35" rx="2" transform="rotate(-10 310 225)"></rect>
            
            <rect fill="url(#gradientGlass)" x="290" y="295" width="20" height="20" rx="2" transform="rotate(-10 290 295)"></rect>
            <rect fill="url(#gradientGlass)" x="310" y="285" width="20" height="20" rx="2" transform="rotate(-10 310 285)"></rect>
        </g>
        
        <!-- Porte -->
        <rect id="door" fill="#212121" x="185" y="290" width="40" height="40" rx="2"></rect>
        <rect id="door-handle" fill="#FFD700" x="215" y="310" width="5" height="5" rx="2.5"></rect>
        
        <!-- Petit bâtiment à côté -->
        <g id="small-building" transform="translate(70, 30)">
            <!-- Face avant -->
            <polygon fill="#212121" points="50,200 100,200 100,320 50,320"></polygon>
            
            <!-- Côté -->
            <polygon fill="#424242" points="100,200 120,180 120,300 100,320"></polygon>
            
            <!-- Toit -->
            <polygon fill="#FFD700" points="50,200 100,200 120,180 70,180"></polygon>
            
            <!-- Fenêtres -->
            <rect fill="url(#gradientGlass)" x="65" y="230" width="20" height="25" rx="2"></rect>
            <rect fill="url(#gradientGlass)" x="65" y="270" width="20" height="25" rx="2"></rect>
        </g>
        
        <!-- Arbre -->
        <g id="tree" transform="translate(320, 50)">
            <rect fill="#5D4037" x="20" y="200" width="10" height="80"></rect>
            <circle fill="#212121" cx="25" cy="180" r="30"></circle>
            <circle fill="#424242" cx="15" cy="160" r="20"></circle>
            <circle fill="#616161" cx="35" cy="150" r="25"></circle>
        </g>
        
        <!-- Nuages -->
        <g id="clouds">
            <g id="cloud1" transform="translate(50, 50)">
                <circle fill="#F7DC6F" cx="0" cy="0" r="20"></circle>
                <circle fill="#F2C464" cx="20" cy="-10" r="15"></circle>
                <circle fill="#F7DC6F" cx="30" cy="0" r="20"></circle>
                <circle fill="#F2C464" cx="15" cy="10" r="15"></circle>
            </g>
            
            <g id="cloud2" transform="translate(280, 30)">
                <circle fill="#F7DC6F" cx="0" cy="0" r="15"></circle>
                <circle fill="#F2C464" cx="15" cy="-5" r="10"></circle>
                <circle fill="#F7DC6F" cx="25" cy="0" r="15"></circle>
                <circle fill="#F2C464" cx="12" cy="7" r="10"></circle>
            </g>
        </g>
    </g>
    
    <!-- Animations -->
    <style>
        @keyframes float {
            0% { transform: translateY(0); }
            50% { transform: translateY(-5px); }
            100% { transform: translateY(0); }
        }
        
        @keyframes cloudDrift1 {
            0% { transform: translate(50px, 50px); }
            50% { transform: translate(70px, 50px); }
            100% { transform: translate(50px, 50px); }
        }
        
        @keyframes cloudDrift2 {
            0% { transform: translate(280px, 30px); }
            50% { transform: translate(260px, 30px); }
            100% { transform: translate(280px, 30px); }
        }
        
        @keyframes windowGlow {
            0% { opacity: 0.7; }
            50% { opacity: 1; }
            100% { opacity: 0.7; }
        }
        
        #building-front, #building-side, #building-roof, #small-building {
            animation: float 6s ease-in-out infinite;
        }
        
        #cloud1 {
            animation: cloudDrift1 20s ease-in-out infinite;
        }
        
        #cloud2 {
            animation: cloudDrift2 15s ease-in-out infinite;
        }
        
        #windows-front rect, #windows-side rect {
            animation: windowGlow 3s ease-in-out infinite;
            animation-delay: calc(var(--i, 0) * 0.5s);
        }
        
        #windows-front rect:nth-child(1) { --i: 1; }
        #windows-front rect:nth-child(2) { --i: 2; }
        #windows-front rect:nth-child(3) { --i: 3; }
        #windows-front rect:nth-child(4) { --i: 4; }
        #windows-front rect:nth-child(5) { --i: 5; }
        #windows-front rect:nth-child(6) { --i: 6; }
        #windows-front rect:nth-child(7) { --i: 7; }
        #windows-front rect:nth-child(8) { --i: 8; }
        #windows-front rect:nth-child(9) { --i: 9; }
        
        #windows-side rect:nth-child(1) { --i: 1; }
        #windows-side rect:nth-child(2) { --i: 2; }
        #windows-side rect:nth-child(3) { --i: 3; }
        #windows-side rect:nth-child(4) { --i: 4; }
        #windows-side rect:nth-child(5) { --i: 5; }
        #windows-side rect:nth-child(6) { --i: 6; }
    </style>
</svg>
