<?xml version="1.0" standalone="no"?>
<!DOCTYPE svg PUBLIC "-//W3C//DTD SVG 20010904//EN"
 "http://www.w3.org/TR/2001/REC-SVG-20010904/DTD/svg10.dtd">
<svg version="1.0" xmlns="http://www.w3.org/2000/svg"
 width="873.000000pt" height="678.000000pt" viewBox="0 0 873.000000 678.000000"
 preserveAspectRatio="xMidYMid meet">

<g transform="translate(0.000000,678.000000) scale(0.100000,-0.100000)"
fill="#000000" stroke="none">
<path d="M4053 6585 c-1 -111 3 -187 7 -170 10 39 10 244 0 315 -5 37 -7 -11
-7 -145z"/>
<path d="M4049 6373 c-1 -5 0 -18 1 -31 1 -14 -9 -33 -24 -47 -14 -13 -26 -31
-26 -40 0 -8 -11 -20 -25 -25 -28 -11 -32 -25 -9 -34 8 -3 12 -11 8 -17 -4 -7
1 -18 11 -25 18 -13 18 -14 0 -34 -16 -18 -17 -24 -7 -41 17 -26 9 -36 -39
-49 -90 -25 -212 -220 -231 -370 -6 -44 -13 -80 -17 -80 -3 0 -11 10 -16 22
-6 14 -24 26 -46 31 -32 7 -37 13 -43 45 -3 20 -6 61 -6 90 l0 52 -40 0 -40 0
-1 -47 c-2 -70 -12 -107 -30 -111 -13 -2 -15 7 -12 55 2 32 0 92 -4 133 -9 82
-14 88 -79 75 -30 -5 -33 -9 -28 -30 8 -34 -4 -69 -20 -56 -7 6 -16 7 -20 3
-4 -4 -29 -7 -54 -7 l-47 0 -3 -67 c-2 -38 -7 -68 -12 -68 -5 0 -11 73 -12
168 l-3 167 -37 3 -38 3 0 -160 c0 -101 -4 -161 -10 -161 -5 0 -10 -4 -10 -10
0 -5 7 -10 15 -10 8 0 15 -4 15 -10 0 -5 -13 -10 -29 -10 -55 0 -122 -13 -118
-23 2 -6 35 -10 78 -10 57 0 61 -1 19 -4 -85 -6 -92 -17 -15 -23 l70 -5 3 -95
c2 -52 0 -118 -3 -146 l-6 -52 -52 -6 c-75 -10 -227 -48 -227 -57 0 -4 15 -3
33 2 17 5 52 12 77 15 45 5 137 29 175 45 27 11 424 84 605 111 41 6 76 12 78
13 1 1 7 58 12 126 9 131 32 257 57 321 26 65 30 42 12 -64 -9 -56 -20 -149
-24 -207 -3 -58 -8 -121 -11 -138 l-5 -33 68 -1 c49 -1 59 -3 35 -8 -18 -3
-31 -10 -30 -16 2 -5 -10 -13 -27 -16 -28 -6 -28 -7 10 -9 22 -1 49 -5 60 -9
18 -7 17 -9 -10 -14 -16 -3 -85 -9 -152 -13 l-123 -6 0 -87 c0 -122 -11 -251
-21 -245 -5 3 -9 79 -9 170 l0 164 -22 -5 c-13 -3 -93 -16 -178 -30 -229 -36
-644 -114 -652 -123 -3 -4 -8 -43 -9 -88 -2 -50 -7 -81 -14 -81 -16 0 -105
-54 -105 -63 0 -5 -10 -12 -22 -16 -21 -6 -21 -7 -3 -20 22 -16 82 -19 87 -4
6 18 85 40 161 46 117 9 113 18 108 -243 -2 -120 -6 -256 -10 -303 l-6 -85
-40 -6 c-22 -4 -86 -10 -142 -14 l-103 -7 0 217 c0 120 -2 216 -5 213 -3 -2
-17 -63 -31 -133 -40 -203 -88 -315 -135 -315 -17 0 -20 -5 -16 -21 4 -15 2
-19 -9 -15 -8 3 -24 2 -36 -3 -50 -18 38 -21 182 -6 80 8 190 19 245 25 298
32 640 52 1000 59 484 11 617 6 634 -20 10 -17 8 -19 -31 -19 -24 -1 -207 -2
-408 -4 -201 -2 -399 -6 -440 -10 -41 -3 -187 -13 -325 -22 -137 -8 -286 -19
-330 -25 -44 -5 -141 -14 -215 -20 -168 -13 -266 -25 -225 -28 56 -5 129 0
320 19 105 10 289 24 410 30 121 5 263 13 315 16 67 3 91 2 80 -5 -17 -12 -14
-13 59 -15 43 -2 64 -17 42 -31 -6 -3 -11 -1 -11 6 0 9 -3 9 -14 0 -9 -8 -16
-8 -20 -2 -4 6 -28 3 -62 -9 -31 -11 -61 -17 -67 -13 -6 3 -7 1 -3 -5 4 -7 17
-12 30 -12 13 0 36 -4 52 -10 16 -5 58 -11 94 -14 36 -2 68 -5 71 -5 3 -1 5
-21 4 -46 -1 -29 2 -44 9 -42 6 2 11 15 11 28 l0 24 220 0 220 0 -4 -392 -3
-393 21 0 c11 0 30 9 41 20 16 16 17 20 5 20 -11 0 -15 12 -15 50 l0 50 65 0
65 0 0 -73 c0 -107 12 -117 135 -117 52 0 96 -4 99 -9 3 -4 -3 -16 -14 -26
-19 -17 -49 -19 -400 -20 -209 -1 -377 1 -375 5 2 4 -2 7 -10 7 -8 0 -13 -5
-12 -11 1 -8 -192 -11 -666 -11 -447 0 -666 3 -664 10 2 5 19 12 38 15 33 6
33 6 -15 13 -70 10 -88 9 -80 -5 5 -7 3 -8 -5 -4 -7 5 -10 15 -6 24 3 8 -5 5
-18 -9 -28 -29 -46 -72 -51 -119 -4 -38 -25 -91 -40 -102 -6 -4 9 -27 32 -52
23 -25 44 -56 48 -71 9 -36 -1 -223 -15 -265 -6 -19 -26 -60 -45 -90 -19 -30
-45 -75 -57 -100 -12 -25 -29 -51 -38 -58 -15 -12 -14 -13 2 -8 15 5 16 2 7
-14 -15 -28 -12 -40 9 -40 23 0 38 -19 23 -29 -7 -4 -3 -12 10 -20 18 -11 20
-11 15 3 -4 9 -2 16 3 16 5 0 12 -11 16 -25 4 -18 13 -25 29 -25 13 0 25 -4
27 -9 2 -5 21 -12 43 -15 22 -4 54 -9 72 -12 25 -5 32 -2 36 13 3 10 5 -10 6
-45 1 -41 5 -64 14 -66 6 -2 62 -9 122 -15 117 -13 151 -16 283 -27 45 -4 82
-10 82 -15 0 -4 -15 -6 -32 -3 -18 2 -118 11 -223 19 -104 9 -198 18 -208 21
-26 8 -67 -22 -67 -49 0 -17 2 -19 10 -7 5 8 11 12 14 9 3 -3 -40 -50 -94
-104 l-100 -100 0 123 0 122 -26 0 -26 0 4 -159 c2 -103 0 -159 -7 -158 -5 1
-9 -4 -7 -11 1 -8 -1 -11 -6 -8 -5 3 -26 -12 -46 -33 -33 -34 -37 -43 -34 -82
4 -59 32 -67 43 -12 5 21 7 42 6 47 -3 14 31 46 42 39 6 -3 7 -1 3 5 -4 7 -2
12 4 12 6 0 9 4 5 9 -3 6 3 14 12 20 10 6 14 11 8 11 -5 0 -4 4 3 8 7 5 14 19
17 31 3 18 1 20 -9 12 -11 -9 -13 -6 -13 14 l0 25 24 -26 c20 -22 27 -24 33
-13 5 7 12 11 15 7 3 -3 -8 -18 -26 -32 -17 -15 -29 -30 -25 -33 3 -4 69 56
147 133 77 76 145 138 151 136 5 -1 25 -3 44 -4 19 -1 34 -5 34 -10 0 -5 -57
-68 -127 -141 -71 -72 -143 -147 -160 -165 -18 -19 -30 -38 -27 -43 3 -5 -1
-6 -9 -3 -18 6 -47 -32 -47 -61 1 -31 24 -55 47 -49 15 4 22 17 27 45 5 33 32
67 181 228 97 104 183 191 193 193 9 2 30 2 45 -2 l28 -5 -26 -34 c-14 -19
-62 -73 -107 -121 -215 -223 -218 -226 -218 -264 0 -26 6 -38 21 -47 20 -10
21 -17 18 -130 -3 -88 -1 -120 9 -124 9 -3 12 20 12 97 0 56 2 99 4 97 2 -2 7
-88 11 -192 6 -164 5 -190 -9 -212 -9 -14 -26 -25 -39 -26 -19 0 -18 -2 7 -11
20 -7 24 -13 15 -18 -8 -5 -14 -33 -15 -72 -2 -47 -1 -56 5 -33 7 24 9 17 11
-40 1 -49 4 -64 10 -50 6 13 9 -12 9 -73 l1 -92 -27 6 c-16 3 -41 9 -58 14
-16 4 -107 25 -202 46 -95 20 -177 40 -182 43 -5 4 -13 34 -16 68 l-8 62 47
13 c25 7 46 16 46 21 0 4 -8 6 -17 3 -10 -2 -33 -7 -50 -11 -30 -6 -33 -4 -33
18 0 13 6 24 13 24 6 0 36 10 65 22 43 17 54 18 58 7 5 -12 30 -18 132 -32 15
-2 22 3 22 14 1 16 2 15 11 0 15 -27 47 -22 55 7 8 34 26 32 20 -2 -2 -16 -5
-32 -5 -37 -1 -5 -4 -6 -8 -3 -3 4 -12 -5 -20 -20 -18 -35 -6 -44 17 -13 l19
25 -8 -38 c-5 -20 -5 -39 -1 -42 15 -9 21 13 27 99 3 47 9 83 14 81 4 -3 10
-1 14 5 3 5 -2 10 -12 10 -11 0 -25 6 -32 12 -10 11 -15 9 -27 -7 -8 -11 -12
-25 -10 -32 8 -19 -4 -43 -20 -43 -15 0 -12 25 7 78 17 44 12 54 -21 47 l-30
-7 0 186 c0 101 -4 196 -9 209 -10 25 -50 44 -52 24 -6 -59 -12 -213 -13 -305
-1 -97 -3 -113 -18 -118 -10 -3 -22 -2 -28 1 -6 4 -10 66 -10 157 0 83 -3 149
-6 145 -3 -3 -5 -73 -5 -155 2 -123 -1 -151 -14 -162 -8 -7 -47 -13 -90 -15
l-75 -2 -6 32 c-3 18 -4 47 -2 65 2 22 -2 35 -11 38 -12 4 -13 -13 -8 -102 5
-96 4 -105 -10 -97 -10 5 -28 4 -48 -5 -37 -15 -56 -7 -24 10 27 13 22 31 -8
31 -33 1 -35 7 -34 84 0 38 -2 72 -7 74 -4 3 -7 92 -7 199 l0 193 90 6 c114 7
142 15 149 42 9 36 7 49 -8 44 -8 -3 -17 1 -20 9 -9 24 -8 26 14 19 13 -4 20
-2 21 7 0 7 2 26 3 41 2 35 -4 39 -40 28 -16 -6 -68 -12 -115 -15 l-87 -4 -7
55 c-4 30 -5 57 -2 59 2 3 14 -11 25 -30 24 -40 70 -58 116 -45 40 12 64 36
77 79 9 31 8 44 -6 74 -39 82 -135 86 -194 9 l-22 -28 7 48 c7 50 1 55 -41 37
-18 -8 -18 -9 -2 -9 18 -1 19 -16 12 -368 -5 -295 -9 -369 -19 -371 -21 -5 -7
-39 17 -47 22 -7 22 -7 -2 -14 -23 -6 -24 -10 -22 -82 3 -114 -1 -124 -55
-126 l-46 -2 4 149 c2 96 -1 150 -7 150 -6 0 -9 -56 -7 -154 l3 -153 -32 -7
c-22 -4 -35 -2 -41 6 -5 9 -8 8 -8 -4 0 -11 -8 -18 -19 -18 -11 0 -23 -4 -26
-10 -3 -5 -16 -9 -28 -9 -56 2 -247 -22 -247 -30 0 -4 66 -21 148 -39 81 -17
228 -50 327 -72 99 -23 200 -46 225 -50 25 -5 245 -54 490 -110 245 -55 528
-118 630 -140 102 -21 327 -68 500 -104 173 -37 336 -71 363 -77 l47 -11 0
-74 c0 -71 1 -74 23 -74 13 0 122 25 243 55 120 30 327 80 459 111 132 30 346
82 475 114 279 69 544 132 695 166 61 14 290 69 510 124 627 155 824 200 948
215 26 4 47 10 47 16 0 5 -7 9 -15 9 -11 0 -15 12 -15 44 l0 44 -75 11 c-42 6
-87 11 -100 11 -24 0 -25 3 -25 61 0 37 -4 58 -10 54 -5 -3 -10 -29 -10 -57
l0 -51 -42 6 c-24 3 -101 13 -173 21 -71 9 -152 21 -178 28 l-48 12 3 80 c4
99 21 103 29 9 5 -64 6 -65 7 -17 1 28 5 66 8 84 6 29 5 32 -14 26 -18 -6 -22
-2 -27 26 -3 18 -7 46 -8 61 -1 15 -7 31 -12 35 -6 4 -11 27 -12 52 -2 50 -2
464 0 520 2 29 -2 35 -18 35 -15 0 -21 -8 -23 -28 -2 -16 0 -36 3 -45 4 -10 6
-89 6 -177 -1 -88 3 -184 7 -213 6 -32 5 -55 0 -58 -6 -4 -8 -23 -6 -43 3 -25
0 -40 -11 -48 -11 -8 -12 -12 -3 -13 9 0 11 -11 7 -37 -5 -33 -10 -114 -14
-221 -1 -20 -5 -31 -11 -27 -6 4 -8 10 -5 15 3 5 1 11 -5 15 -5 3 -10 -1 -10
-10 0 -13 -6 -15 -27 -11 -16 3 -48 8 -73 12 -25 3 -46 6 -47 7 -1 1 -5 233
-9 516 l-7 513 34 -7 c19 -4 57 -20 84 -36 l50 -28 -3 54 c-4 56 3 64 43 55 6
-1 31 -2 58 -1 44 1 47 0 43 -21 -16 -78 -17 -100 -4 -95 7 3 29 11 48 17 53
18 112 61 142 106 31 47 49 114 37 137 -7 12 -3 17 13 22 61 19 127 102 128
160 0 43 -22 95 -60 138 -22 25 -40 50 -40 55 0 6 11 24 25 40 51 61 69 119
70 222 0 76 -4 104 -21 141 -30 64 -79 116 -138 146 -102 51 -106 56 -106 131
0 94 -43 181 -111 225 -19 13 -26 26 -28 58 -1 23 -8 54 -16 69 -18 34 -90 99
-113 102 -9 1 -26 2 -37 3 -24 1 -108 -82 -159 -160 -21 -30 -39 -55 -42 -55
-3 0 -19 7 -35 16 -25 12 -33 13 -46 2 -8 -7 -30 -19 -48 -28 -18 -8 -80 -60
-139 -115 -102 -96 -106 -102 -106 -141 0 -23 6 -57 14 -75 15 -39 10 -103
-10 -120 -10 -8 -21 -6 -44 11 -17 12 -34 20 -37 16 -3 -3 -12 2 -19 12 -10
13 -12 91 -7 380 5 285 4 365 -6 371 -8 5 -2 10 18 14 19 4 31 13 31 22 0 9 5
13 11 10 5 -4 21 -4 34 -1 19 5 23 12 21 34 l-3 27 -182 19 c-99 11 -180 21
-178 23 6 6 49 5 167 -3 231 -16 326 -8 243 21 -40 14 -86 70 -103 125 -7 25
-17 50 -21 55 -4 6 -10 105 -13 220 -3 116 -6 212 -6 215 0 3 -5 -2 -10 -10
-6 -10 -10 -11 -10 -3 0 7 14 19 30 28 17 9 30 19 30 23 0 13 -76 74 -122 98
-42 21 -48 29 -49 57 -2 74 -8 120 -16 127 -9 9 -166 40 -201 40 -22 0 -22 -3
-22 -144 l0 -144 -25 -4 c-14 -3 -25 -1 -25 3 0 5 -7 6 -16 2 -25 -9 5 -23 37
-16 24 5 27 3 22 -16 -3 -11 -9 -21 -13 -21 -4 0 -10 -9 -13 -21 -7 -26 -33
-19 -29 7 2 10 5 23 5 28 1 5 -4 11 -12 14 -10 3 -13 -2 -9 -22 7 -35 -6 -42
-20 -11 -7 14 -7 25 -2 25 5 0 8 9 7 19 0 10 -6 17 -13 14 -6 -2 -14 3 -18 13
-5 14 -1 15 29 10 29 -6 35 -4 35 11 1 14 4 13 16 -7 14 -23 15 -23 11 -3 -3
15 -1 20 9 16 8 -3 14 -1 14 5 0 12 -29 24 -40 17 -5 -3 -22 8 -38 25 -17 17
-41 35 -54 40 -21 10 -21 10 6 5 23 -5 27 -3 23 9 -4 9 -4 16 -1 16 2 0 9 -12
14 -26 6 -14 14 -22 20 -19 6 3 7 -1 4 -9 -4 -11 0 -16 11 -16 10 0 13 -5 9
-12 -4 -7 -3 -8 5 -4 9 6 9 11 1 21 -9 10 -7 13 7 11 10 -2 17 -11 17 -20 -1
-10 1 -14 5 -11 3 4 6 29 7 55 0 48 0 49 -27 43 -23 -4 -30 0 -43 26 -19 36
-27 40 -21 11 2 -11 0 -20 -6 -20 -5 0 -7 10 -5 23 3 12 5 25 5 29 1 4 9 5 19
2 14 -5 15 -4 2 5 -9 7 -11 14 -5 19 6 4 17 20 25 36 12 23 12 30 3 33 -7 3
-13 9 -13 14 0 4 7 6 15 3 8 -4 15 -1 15 5 0 6 6 9 13 7 6 -1 9 -1 5 1 -5 3
-8 21 -8 41 0 28 3 33 10 22 12 -18 12 -18 15 82 2 37 6 72 10 77 3 6 3 11 -2
11 -4 0 -7 37 -5 82 3 59 8 88 20 101 9 10 17 27 19 37 3 20 -2 22 -78 35 -47
7 -225 -15 -525 -66 -131 -22 -256 -43 -276 -46 -42 -6 -52 -23 -14 -23 13 0
59 7 102 15 107 20 343 55 363 54 24 -1 -32 -13 -244 -49 -104 -19 -193 -36
-198 -40 -4 -3 83 8 193 26 324 52 521 77 531 67 5 -5 9 -120 9 -255 1 -181 4
-248 13 -252 9 -3 9 -5 0 -5 -7 -1 -13 -8 -13 -16 0 -8 -4 -15 -10 -15 -5 0
-10 4 -10 9 0 5 -21 23 -47 40 -27 16 -55 37 -63 44 -8 8 -42 17 -76 20 -58 6
-453 87 -524 108 -19 6 -102 23 -185 37 l-150 28 -7 79 c-11 117 -35 229 -70
320 -25 64 -43 91 -89 138 -32 32 -79 67 -104 78 -38 17 -44 23 -35 38 6 13 5
24 -4 36 -15 21 -2 71 24 92 13 11 11 16 -12 34 -16 11 -28 27 -28 35 0 7 -9
19 -20 26 -13 9 -20 24 -20 45 0 23 -5 33 -15 33 -8 0 -15 -3 -16 -7z m1366
-662 c-10 -10 -165 -34 -172 -27 -2 2 29 9 69 16 40 6 78 13 83 15 20 7 29 5
20 -4z m58 2 c-7 -2 -19 -2 -25 0 -7 3 -2 5 12 5 14 0 19 -2 13 -5z m-1796
-190 c-3 -10 -5 -4 -5 12 0 17 2 24 5 18 2 -7 2 -21 0 -30z m600 5 c-3 -8 -6
-5 -6 6 -1 11 2 17 5 13 3 -3 4 -12 1 -19z m-327 -22 c0 -2 -15 -6 -34 -8 -19
-2 -32 0 -30 4 5 8 64 12 64 4z m1612 -194 c3 -9 1 -26 -3 -37 -6 -15 -8 -11
-8 18 -1 40 4 48 11 19z m-1429 -69 c15 -17 21 -36 18 -59 -2 -17 -40 -58 -48
-50 -4 3 3 15 15 26 23 22 27 32 15 43 -9 9 -34 -13 -27 -24 3 -5 -1 -6 -9 -3
-16 6 -31 -22 -21 -38 4 -6 1 -9 -7 -6 -8 3 -16 17 -19 32 -5 26 -6 27 -22 9
-103 -110 -119 -140 -138 -259 -9 -58 -8 -69 29 -211 12 -43 98 -127 147 -143
52 -17 63 -27 57 -50 -7 -25 13 -26 65 -5 33 13 35 13 17 0 -54 -42 -161 -48
-228 -14 -30 15 -117 100 -117 115 0 6 -14 11 -31 12 -40 1 -47 9 -26 30 15
15 19 15 27 2 19 -30 22 17 5 75 -13 43 -16 85 -13 164 3 93 7 114 34 171 39
82 83 133 148 171 58 33 106 37 129 12z m106 -113 c27 -14 69 -118 81 -198 11
-80 0 -194 -25 -241 -17 -35 -80 -91 -101 -91 -8 0 -13 -4 -10 -8 8 -13 -63
-14 -115 -1 -26 6 -56 19 -67 29 -11 10 -23 16 -28 12 -4 -4 -4 -1 0 6 4 6 2
12 -3 12 -6 0 -11 4 -11 9 0 5 17 0 37 -10 49 -25 99 -24 153 4 55 27 90 88
90 155 0 39 -2 44 -20 39 -11 -3 -20 -1 -20 3 0 5 -24 11 -52 13 -45 3 -42 4
20 5 l74 2 -7 43 c-11 65 -45 135 -76 157 -15 11 -48 23 -73 26 -25 4 -44 10
-41 14 2 4 30 3 60 -3 52 -8 58 -8 71 12 16 23 35 26 63 11z m-798 -37 c13
-16 12 -17 -3 -4 -17 13 -22 21 -14 21 2 0 10 -8 17 -17z m1269 -13 c0 -5 -17
-10 -37 -9 -34 1 -35 2 -13 9 36 11 50 11 50 0z m-87 -17 c-7 -2 -21 -2 -30 0
-10 3 -4 5 12 5 17 0 24 -2 18 -5z m-1199 -46 c18 -21 18 -38 13 -320 -3 -191
-9 -302 -16 -311 -6 -7 -8 -15 -5 -18 3 -3 -21 -8 -53 -12 -142 -14 -208 -18
-202 -12 6 7 46 12 162 21 42 4 77 11 77 16 0 4 -12 7 -27 4 -16 -2 -64 -7
-108 -10 -44 -3 -96 -9 -114 -15 l-34 -9 7 301 c5 199 12 307 19 320 41 67
234 98 281 45z m1509 12 c20 -5 37 -16 37 -24 0 -8 6 -12 14 -9 21 8 55 -13
54 -34 -1 -9 2 -145 7 -302 4 -157 5 -283 2 -280 -4 5 -9 97 -23 430 -6 140
-14 174 -41 176 -59 5 -59 5 -38 14 19 8 19 9 -3 9 -12 1 -25 -6 -28 -14 -5
-12 -10 -13 -20 -4 -15 13 -76 9 -86 -6 -4 -5 -11 1 -16 14 -6 16 -11 20 -16
13 -4 -7 -13 -12 -19 -12 -7 0 -6 4 3 10 8 5 11 10 7 10 -5 0 -5 5 -2 10 8 13
120 13 168 -1z m630 -3 c4 -10 1 -13 -9 -9 -7 3 -14 9 -14 14 0 14 17 10 23
-5z m-735 -169 l3 -107 -26 0 c-27 0 -28 3 -25 63 1 25 -3 37 -12 37 -10 0 -9
3 2 10 13 8 13 13 2 31 -8 11 -9 18 -3 14 18 -11 13 47 -6 60 -14 10 -10 11
23 6 l39 -6 3 -108z m68 95 c7 -4 13 -49 16 -110 l4 -103 -26 3 c-25 3 -25 4
-28 111 -3 108 2 121 34 99z m496 -2 c35 -10 58 -34 58 -59 0 -7 -7 -7 -20 1
-11 7 -18 19 -15 26 3 8 0 10 -8 5 -17 -11 -119 -3 -136 10 -12 9 -13 9 -7 0
6 -12 -5 -18 -26 -14 -11 1 -10 -37 1 -43 5 -3 10 -99 10 -213 2 -209 -5 -279
-10 -103 -2 52 -6 105 -11 118 -6 17 -5 21 5 16 9 -6 9 -4 -1 8 -17 21 -15
239 2 250 16 11 115 9 158 -2z m335 -36 c-3 -3 -12 -4 -19 -1 -8 3 -5 6 6 6
11 1 17 -2 13 -5z m-427 -118 c0 -52 3 -101 6 -109 3 -8 -1 -17 -9 -20 -13 -5
-15 13 -16 109 -1 72 2 114 9 114 6 0 10 -36 10 -94z m625 60 c19 -8 25 -15
17 -20 -7 -4 -12 -2 -12 4 0 6 -13 8 -32 5 -25 -4 -29 -3 -18 5 11 8 5 9 -24
5 -21 -3 -50 -8 -62 -11 -23 -6 -32 5 -17 19 11 12 116 7 148 -7z m-458 -28
c-3 -7 -5 -2 -5 12 0 14 2 19 5 13 2 -7 2 -19 0 -25z m0 -55 c-3 -10 -5 -4 -5
12 0 17 2 24 5 18 2 -7 2 -21 0 -30z m73 17 c0 -5 -5 -10 -11 -10 -5 0 -7 5
-4 10 3 6 8 10 11 10 2 0 4 -4 4 -10z m310 -96 c0 -46 -4 -84 -9 -84 -10 0
-19 93 -13 143 8 66 22 28 22 -59z m-1020 -45 c0 -44 -4 -68 -10 -64 -5 3 -10
0 -10 -7 0 -9 -3 -9 -10 2 -5 8 -10 43 -10 78 0 55 2 62 20 62 18 0 20 -7 20
-71z m80 -4 c0 -57 -2 -65 -19 -65 -17 0 -20 9 -23 65 -3 62 -2 65 20 65 21 0
22 -4 22 -65z m390 -46 c0 -17 -4 -28 -10 -24 -5 3 -10 17 -10 31 0 13 5 24
10 24 6 0 10 -14 10 -31z m-1482 -5 c14 -15 14 -16 -3 -13 -10 2 -20 10 -23
17 -5 17 6 15 26 -4z m522 -4 c0 -5 -5 -10 -11 -10 -5 0 -7 5 -4 10 3 6 8 10
11 10 2 0 4 -4 4 -10z m1509 -22 c0 -18 -4 -42 -8 -53 -6 -15 -9 -11 -14 20
-10 58 -9 65 8 65 10 0 15 -10 14 -32z m-372 -110 c-3 -8 -6 -5 -6 6 -1 11 2
17 5 13 3 -3 4 -12 1 -19z m1 -74 c0 -19 -3 -36 -6 -38 -4 -2 -7 18 -7 45 -1
27 2 44 6 37 4 -6 7 -26 7 -44z m-707 -7 c-10 -9 -11 -8 -5 6 3 10 9 15 12 12
3 -3 0 -11 -7 -18z m256 1 c-3 -8 -6 -5 -6 6 -1 11 2 17 5 13 3 -3 4 -12 1
-19z m-1398 -2 c-2 -2 -40 -6 -84 -9 -46 -3 -72 -1 -60 3 19 8 153 14 144 6z
m2358 -63 c-2 -16 -4 -5 -4 22 0 28 2 40 4 28 2 -13 2 -35 0 -50z m-2864 20
c-7 -2 -19 -2 -25 0 -7 3 -2 5 12 5 14 0 19 -2 13 -5z m-65 -10 c-10 -2 -28
-2 -40 0 -13 2 -5 4 17 4 22 1 32 -1 23 -4z m-95 -10 c-13 -2 -35 -2 -50 0
-16 2 -5 4 22 4 28 0 40 -2 28 -4z m1862 -19 c61 -8 117 -14 125 -15 92 -5
441 -42 460 -50 22 -8 21 -8 -10 -4 -19 2 -93 9 -165 15 -71 6 -157 15 -189
20 -32 5 -62 7 -66 5 -4 -3 -43 0 -86 5 -86 11 -295 30 -331 30 -13 0 -23 5
-23 11 0 13 100 7 285 -17z m-1990 6 c-27 -5 -66 -8 -85 -8 l-35 1 40 7 c22 4
60 7 85 7 l45 0 -50 -7z m-180 -20 c-27 -5 -66 -8 -85 -8 -32 1 -31 2 10 8 25
4 63 7 85 7 38 0 37 0 -10 -7z m1155 -61 c0 -5 -4 -9 -10 -9 -5 0 -10 7 -10
16 0 8 5 12 10 9 6 -3 10 -10 10 -16z m57 -11 c-3 -7 -5 -2 -5 12 0 14 2 19 5
13 2 -7 2 -19 0 -25z m38 23 c3 -5 2 -12 -3 -15 -5 -3 -9 1 -9 9 0 17 3 19 12
6z m30 0 c3 -5 2 -12 -3 -15 -5 -3 -9 1 -9 9 0 17 3 19 12 6z m159 -7 c3 -8 2
-12 -4 -9 -6 3 -10 10 -10 16 0 14 7 11 14 -7z m-254 -4 c0 -5 -4 -10 -10 -10
-5 0 -10 5 -10 10 0 6 5 10 10 10 6 0 10 -4 10 -10z m1650 0 c0 -5 -2 -10 -4
-10 -3 0 -8 5 -11 10 -3 6 -1 10 4 10 6 0 11 -4 11 -10z m104 -9 c6 -9 -62 -6
-72 3 -3 3 11 6 31 6 20 0 38 -4 41 -9z m-1115 -153 c1 -5 -30 -8 -67 -8 -62
0 -68 2 -68 21 0 19 5 21 48 17 26 -3 53 -1 60 3 12 7 25 -9 27 -33z m-1 -95
l2 -65 -60 4 c-33 2 -62 6 -64 9 -3 2 -6 30 -8 61 -4 55 -3 57 22 60 14 2 43
1 66 0 l40 -4 2 -65z m312 -18 l0 -55 -40 2 c-30 1 -36 4 -25 12 7 6 16 25 18
41 4 27 4 26 6 -7 2 -52 21 -48 22 5 1 23 1 45 0 50 0 4 4 7 9 7 6 0 10 -25
10 -55z m-93 -12 c-3 -10 -5 -4 -5 12 0 17 2 24 5 18 2 -7 2 -21 0 -30z m973
-26 c-1 -18 -1 -79 -1 -137 0 -71 -3 -107 -12 -112 -9 -6 -9 -8 0 -8 7 0 10
-7 6 -17 -6 -14 -7 -14 -14 3 -10 28 -9 163 2 170 5 3 9 13 8 22 0 14 -2 13
-10 -3 -6 -14 -7 -5 -2 25 4 25 7 57 7 72 -1 15 3 25 8 22 5 -3 8 -20 8 -37z
m-1190 -227 l0 -210 -65 0 -65 0 0 65 0 65 63 2 62 2 -62 3 -63 4 0 64 0 65
58 2 57 1 -58 6 c-31 3 -57 9 -57 14 0 4 0 34 0 67 l0 60 65 0 65 0 0 -210z
m267 178 c-3 -8 -6 -5 -6 6 -1 11 2 17 5 13 3 -3 4 -12 1 -19z m43 7 c0 -8 -4
-15 -10 -15 -5 0 -10 7 -10 15 0 8 5 15 10 15 6 0 10 -7 10 -15z m510 -16 c0
-12 -54 -11 -65 0 -6 6 -10 -36 -10 -115 0 -92 3 -124 13 -124 6 0 12 12 12
28 0 21 2 24 10 12 5 -8 7 -23 4 -32 -6 -19 11 -25 19 -8 3 6 4 5 3 -2 -2 -8
-14 -12 -30 -10 -26 3 -26 2 -27 -65 0 -37 -4 -77 -8 -88 -7 -18 -9 -17 -14
10 -10 49 -5 175 7 175 7 0 7 3 1 8 -5 4 -11 55 -11 115 l-2 107 27 6 c14 3
31 7 36 9 12 3 35 -14 35 -26z m-553 -31 c-3 -8 -6 -5 -6 6 -1 11 2 17 5 13 3
-3 4 -12 1 -19z m37 -81 c-2 -122 -2 -125 -12 -111 -9 15 -3 214 6 214 4 0 6
-46 6 -103z m-87 61 c-3 -8 -6 -5 -6 6 -1 11 2 17 5 13 3 -3 4 -12 1 -19z m50
-50 c-2 -13 -4 -5 -4 17 -1 22 1 32 4 23 2 -10 2 -28 0 -40z m520 -53 c0 -8
-4 -15 -9 -15 -4 0 -8 7 -8 15 0 8 4 15 8 15 5 0 9 -7 9 -15z m-333 -40 c3 -8
1 -15 -4 -15 -6 0 -10 7 -10 15 0 8 2 15 4 15 2 0 6 -7 10 -15z m-184 -11 c0
-8 -4 -12 -10 -9 -5 3 -10 10 -10 16 0 5 5 9 10 9 6 0 10 -7 10 -16z m190 -49
c0 -5 -5 -3 -10 5 -5 8 -10 20 -10 25 0 6 5 3 10 -5 5 -8 10 -19 10 -25z m773
10 c1 -5 -6 -11 -15 -13 -11 -2 -18 3 -18 13 0 17 30 18 33 0z m-773 -55 c0
-5 -2 -10 -4 -10 -3 0 -8 5 -11 10 -3 6 -1 10 4 10 6 0 11 -4 11 -10z m907
-107 c-2 -16 -4 -5 -4 22 0 28 2 40 4 28 2 -13 2 -35 0 -50z m-60 -179 c-3 -3
-12 -4 -19 -1 -8 3 -5 6 6 6 11 1 17 -2 13 -5z m-537 -44 c0 -5 -7 -7 -15 -4
-8 4 -15 8 -15 10 0 2 7 4 15 4 8 0 15 -4 15 -10z m-403 -16 c-3 -3 -12 -4
-19 -1 -8 3 -5 6 6 6 11 1 17 -2 13 -5z m398 -12 c-3 -3 -21 -7 -40 -8 -30 -1
-33 0 -19 11 16 11 71 9 59 -3z m-1685 -13 c74 -5 176 -13 225 -17 60 -5 92
-5 97 2 5 8 8 7 8 -1 0 -6 13 -11 30 -11 17 1 30 4 30 8 0 3 31 7 70 8 68 3
70 2 76 -24 l7 -26 105 5 104 6 -6 -37 c-3 -20 -6 -201 -6 -402 -1 -364 -1
-365 -20 -341 -11 13 -20 37 -21 55 0 17 -3 25 -6 19 -14 -37 -23 -1 -23 97
l0 110 -70 0 c-63 0 -70 -2 -70 -20 0 -11 -4 -20 -9 -20 -5 0 -13 9 -16 20 -5
14 -16 20 -38 21 -27 0 -29 2 -12 9 21 9 18 11 -33 15 -68 6 -47 35 26 35 l42
0 0 105 0 105 -42 0 c-85 0 -91 36 -8 42 l45 3 3 58 3 57 -76 0 -75 0 -2 -342
c-2 -368 -2 -397 4 -403 14 -14 550 -44 537 -31 -6 6 -37 12 -81 15 -16 1 -18
15 -18 141 0 118 2 140 15 140 8 0 15 5 15 10 0 6 -7 10 -15 10 -13 0 -15 31
-15 220 l0 221 68 -3 67 -3 0 -375 c0 -314 2 -376 14 -381 8 -3 15 -13 17 -22
4 -26 -34 -31 -190 -23 -78 3 -271 6 -431 7 -162 1 -347 7 -420 15 -318 33
-577 55 -581 51 -6 -6 105 -21 371 -51 116 -13 197 -24 181 -25 -36 -1 -187
13 -486 44 -124 14 -268 27 -321 31 -95 7 -96 7 -91 31 3 14 15 28 27 33 12 5
24 19 27 32 3 17 10 719 8 780 0 11 806 9 960 -3z m886 -56 c-3 -8 2 -13 13
-13 24 0 29 -7 23 -35 -4 -24 -8 -25 -73 -25 l-69 0 0 39 c0 44 6 48 68 48 32
0 42 -4 38 -14z m791 -45 c-3 -8 -6 -5 -6 6 -1 11 2 17 5 13 3 -3 4 -12 1 -19z
m417 10 c-5 -8 0 -9 14 -6 12 4 20 2 17 -2 -3 -5 -2 -10 2 -13 5 -2 2 -2 -6 0
-22 6 -30 -16 -19 -49 6 -16 8 -42 6 -59 -4 -25 -2 -29 15 -27 11 2 22 -3 24
-9 3 -8 -4 -13 -19 -13 -25 0 -23 21 -27 -257 0 -45 -5 -84 -10 -88 -6 -3 -10
96 -11 265 0 186 3 270 10 270 6 0 8 -5 4 -12z m-437 -30 c-3 -7 -5 -2 -5 12
0 14 2 19 5 13 2 -7 2 -19 0 -25z m-514 -90 c3 -38 1 -68 -3 -68 -4 0 -8 35
-8 78 -1 90 4 85 11 -10z m90 -13 c2 -27 2 -59 -2 -69 -7 -18 -9 -17 -17 10
-11 34 -6 131 5 118 5 -5 11 -31 14 -59z m497 20 c0 -22 6 -37 17 -44 27 -15
10 -23 -43 -19 l-49 4 30 14 c26 13 30 20 28 48 -2 17 2 32 7 32 6 0 10 -16
10 -35z m-541 -65 c1 -13 0 -13 -9 0 -8 12 -10 12 -10 1 0 -8 -2 -12 -5 -9 -4
3 -3 18 1 34 6 25 8 26 15 9 4 -11 8 -27 8 -35z m476 -57 c0 -21 -6 -47 -13
-58 -11 -18 -12 -15 -10 25 1 36 12 70 22 70 0 0 1 -17 1 -37z m64 -10 c-1
-41 -2 -44 -8 -18 -7 28 -4 65 5 65 2 0 3 -21 3 -47z m-592 -15 c-3 -7 -5 -2
-5 12 0 14 2 19 5 13 2 -7 2 -19 0 -25z m94 -176 c-2 -9 -7 -10 -14 -3 -5 5
-15 7 -22 5 -6 -3 -12 2 -12 10 0 8 6 12 14 9 14 -5 18 24 13 104 -1 23 2 52
7 65 5 16 9 -7 13 -77 3 -55 3 -106 1 -113z m466 186 c-3 -8 -6 -5 -6 6 -1 11
2 17 5 13 3 -3 4 -12 1 -19z m440 -30 c-3 -7 -5 -2 -5 12 0 14 2 19 5 13 2 -7
2 -19 0 -25z m-1000 -30 c-3 -7 -5 -2 -5 12 0 14 2 19 5 13 2 -7 2 -19 0 -25z
m530 -33 c0 -8 -4 -15 -9 -15 -4 0 -8 -5 -8 -11 0 -5 5 -7 10 -4 6 3 10 2 10
-4 0 -5 -5 -13 -11 -17 -6 -3 -9 -14 -6 -24 2 -10 1 -24 -4 -31 -6 -9 -8 13
-7 57 1 49 6 70 13 68 7 -3 12 -11 12 -19z m63 0 c0 -8 -9 -15 -20 -15 -11 0
-20 5 -20 11 0 5 4 8 9 4 5 -3 12 -1 16 5 9 14 15 12 15 -5z m420 -20 c0 -7
-7 -15 -15 -19 -15 -5 -22 24 -9 37 9 9 24 -2 24 -18z m320 -84 c0 -3 -11 -19
-24 -36 l-23 -29 -7 31 c-4 18 -4 53 0 78 l7 47 23 -42 c13 -23 24 -45 24 -49z
m-730 44 c0 -7 -13 -15 -30 -17 -31 -5 -34 -1 -24 25 6 17 54 11 54 -8z m-80
-107 c0 -39 -11 -30 -16 12 -2 19 0 29 6 25 6 -3 10 -20 10 -37z m-1150 -69
c0 -11 -4 -18 -10 -14 -5 3 -7 12 -3 20 7 21 13 19 13 -6z m1588 -34 c-3 -29
-11 -23 -16 11 -2 16 1 23 7 19 6 -3 10 -17 9 -30z m-1 -57 c-3 -8 -6 -5 -6 6
-1 11 2 17 5 13 3 -3 4 -12 1 -19z m375 -32 c3 3 8 -4 11 -15 4 -17 -1 -19
-39 -19 -24 0 -44 1 -44 4 0 2 8 13 17 23 12 14 21 17 33 11 10 -5 20 -7 22
-4z m-1941 -39 c101 0 109 -1 109 -19 0 -17 -6 -18 -77 -13 -169 13 -185 15
-172 31 6 7 16 11 21 8 6 -4 59 -7 119 -7z m2224 -23 c47 -43 129 -84 167 -84
38 0 42 -23 34 -183 -3 -73 -7 -190 -8 -262 -1 -114 1 -130 15 -133 25 -5 24
-82 0 -88 -16 -5 -18 -21 -17 -180 l1 -174 -33 0 c-21 0 -34 -5 -34 -12 0 -10
-2 -10 -8 -1 -4 7 -40 13 -87 14 -89 4 -129 18 -140 52 l-8 22 -4 -24 c-4 -21
-9 -23 -41 -17 -21 3 -47 6 -58 6 -12 0 -46 23 -77 53 l-55 52 -5 85 c-6 91
-22 150 -40 150 -8 0 -8 3 0 11 8 8 19 6 41 -5 35 -18 46 -20 38 -7 -3 4 6 6
19 3 14 -2 25 -9 26 -16 0 -6 1 -30 2 -53 1 -24 5 -43 10 -43 71 -1 67 -4 67
50 0 41 -4 52 -22 63 -92 55 -158 101 -158 109 0 5 10 3 23 -3 20 -11 21 -11
8 5 -12 14 -12 19 -2 26 10 6 8 11 -9 20 -13 7 -49 37 -79 68 -32 31 -43 46
-26 34 17 -11 39 -30 50 -42 25 -28 205 -159 262 -191 41 -23 43 -26 43 -71
l0 -48 35 0 c24 0 37 6 45 20 6 11 8 20 5 20 -4 0 1 7 9 16 9 8 14 20 11 25
-4 5 -1 9 4 9 6 0 11 12 11 26 0 19 5 25 18 22 12 -2 20 -18 26 -56 9 -48 12
-52 38 -52 35 0 42 16 31 71 -8 40 -12 44 -103 95 -52 29 -117 72 -144 96 -27
23 -53 42 -58 40 -5 -1 -7 2 -4 7 3 5 -1 11 -9 15 -8 3 -15 10 -15 16 0 6 10
1 22 -10 30 -28 85 -60 92 -53 3 3 -16 24 -42 47 -73 63 -222 209 -222 216 0
4 23 10 52 13 58 7 82 22 58 37 -8 5 -25 10 -37 10 -22 0 -23 3 -23 89 0 77 2
90 18 95 27 9 165 25 172 21 4 -2 20 0 36 5 16 4 31 9 34 9 3 1 23 -15 45 -35z
m-3525 -88 c106 -8 145 -12 210 -22 25 -4 59 -8 75 -9 143 -9 256 -17 271 -20
11 -2 36 -4 57 -4 21 -1 36 -5 32 -10 -3 -5 -1 -12 5 -16 5 -3 10 1 10 9 0 31
42 6 54 -32 4 -12 12 -22 17 -22 11 0 12 14 2 24 -14 13 -11 36 4 36 10 0 14
-6 10 -20 -4 -14 0 -20 11 -21 11 0 13 -2 4 -6 -10 -4 -10 -8 -1 -19 10 -12 9
-13 -5 -8 -10 4 -16 1 -16 -7 -1 -10 -3 -9 -10 2 -11 19 -53 15 -71 -7 -13
-16 -54 -20 -44 -4 3 5 12 7 20 3 19 -6 19 6 1 30 -8 10 -12 28 -9 40 4 19 3
20 -7 5 -8 -13 -8 -23 0 -38 11 -21 8 -23 -35 -21 -11 0 -14 -2 -7 -5 17 -8
15 -24 -3 -24 -8 0 -15 7 -15 15 0 16 -25 16 -49 0 -10 -5 -16 -4 -19 3 -2 7
-8 12 -13 12 -6 0 -7 -4 -4 -10 3 -5 1 -10 -4 -10 -6 0 -11 6 -11 13 0 9 -2 9
-8 0 -5 -8 -23 -11 -47 -8 -22 2 -69 7 -105 10 -36 4 -74 8 -85 9 -11 2 -31 4
-45 5 -20 1 -22 3 -10 11 13 8 13 10 -2 10 -9 0 -18 -5 -20 -11 -2 -6 -14 -8
-31 -4 -15 4 -24 11 -21 16 3 5 0 9 -5 9 -6 0 -11 -4 -11 -10 0 -16 -57 -12
-74 5 -17 17 -30 20 -21 5 5 -7 -13 -10 -52 -7 -54 3 -58 5 -59 27 -1 36 7 52
22 46 8 -3 14 -1 14 4 0 6 -7 10 -16 10 -13 0 -14 3 -4 15 7 8 15 13 19 11 3
-2 49 -7 101 -10z m753 -13 c-13 -2 -33 -2 -45 0 -13 2 -3 4 22 4 25 0 35 -2
23 -4z m154 1 c-3 -3 -12 -4 -19 -1 -8 3 -5 6 6 6 11 1 17 -2 13 -5z m-66 -56
c1 -7 3 -46 4 -86 2 -61 0 -72 -12 -68 -8 3 -16 6 -17 6 -1 0 -1 16 0 35 2 20
-1 33 -6 30 -5 -3 -12 -1 -15 5 -4 6 -1 9 7 8 9 -2 14 11 16 40 3 38 20 60 23
30z m358 -17 c8 -5 -5 -7 -35 -4 -27 3 -51 7 -53 9 -9 8 75 3 88 -5z m184 -8
c-29 -2 -78 -2 -110 0 -32 2 -8 3 52 3 61 0 87 -1 58 -3z m-693 -73 c0 -5 -4
-10 -10 -10 -5 0 -10 5 -10 10 0 6 5 10 10 10 6 0 10 -4 10 -10z m70 6 c0 -2
-8 -10 -17 -17 -16 -13 -17 -12 -4 4 13 16 21 21 21 13z m-330 -20 c8 -2 -9
-4 -37 -5 -29 0 -53 3 -53 7 0 7 52 6 90 -2z m88 -13 c-10 -2 -26 -2 -35 0
-10 3 -2 5 17 5 19 0 27 -2 18 -5z m625 0 c-7 -2 -19 -2 -25 0 -7 3 -2 5 12 5
14 0 19 -2 13 -5z m-815 -10 c-10 -2 -26 -2 -35 0 -10 3 -2 5 17 5 19 0 27 -2
18 -5z m280 0 c-10 -2 -26 -2 -35 0 -10 3 -2 5 17 5 19 0 27 -2 18 -5z m-170
-10 c-10 -2 -26 -2 -35 0 -10 3 -2 5 17 5 19 0 27 -2 18 -5z m280 0 c-10 -2
-28 -2 -40 0 -13 2 -5 4 17 4 22 1 32 -1 23 -4z m-181 -9 c-3 -3 -12 -4 -19
-1 -8 3 -5 6 6 6 11 1 17 -2 13 -5z m-208 -20 c4 -4 -129 -145 -267 -284 -82
-83 -95 -100 -99 -136 -4 -29 -1 -45 12 -57 18 -18 16 -20 -37 -31 -14 -3 -33
-9 -42 -12 -11 -4 -16 0 -16 14 0 12 -6 25 -13 29 -9 5 -12 25 -9 59 l4 51
187 192 187 192 44 -7 c25 -4 47 -8 49 -10z m384 -1 c-7 -2 -21 -2 -30 0 -10
3 -4 5 12 5 17 0 24 -2 18 -5z m-213 -9 c0 -3 -83 -92 -185 -197 l-185 -192 0
-47 c0 -28 6 -52 15 -62 8 -8 15 -17 15 -20 0 -10 -38 -6 -42 4 -2 6 -23 14
-48 18 l-44 7 3 55 2 55 147 148 c81 82 165 168 187 193 36 40 44 44 87 44 27
0 48 -3 48 -6z m418 -1 c-21 -2 -55 -2 -75 0 -21 2 -4 4 37 4 41 0 58 -2 38
-4z m650 -10 c-43 -2 -113 -2 -155 0 -43 1 -8 3 77 3 85 0 120 -2 78 -3z
m-869 -19 c2 -2 -64 -72 -147 -155 -83 -83 -150 -156 -149 -162 1 -6 -3 -11
-10 -12 -7 0 -18 -6 -25 -14 -10 -10 -10 -12 0 -7 19 11 14 -6 -14 -48 -20
-29 -25 -47 -22 -77 3 -38 3 -39 -27 -38 -16 0 -48 3 -69 7 l-40 7 3 55 c5
103 8 112 52 154 23 23 39 35 35 29 -11 -20 8 -15 26 6 9 11 13 23 10 27 -4 4
-2 4 4 1 6 -3 51 35 100 86 49 51 107 106 128 124 36 29 44 31 90 26 28 -3 53
-7 55 -9z m-97 -202 l-203 -197 1 -68 c0 -51 -3 -68 -12 -65 -8 3 -14 28 -16
66 l-3 62 128 131 c140 143 280 269 297 269 6 0 -80 -89 -192 -198z m219 105
c-8 -8 -11 2 -11 34 0 59 14 73 18 19 2 -24 -2 -48 -7 -53z m1084 -18 c121
-123 271 -255 383 -337 49 -37 74 -62 78 -80 7 -35 22 -70 23 -54 1 6 6 12 12
12 6 0 9 -6 6 -14 -3 -8 -1 -17 6 -20 12 -5 -38 3 -60 10 -8 2 -13 20 -13 42
0 35 -5 42 -42 67 -119 79 -303 247 -473 433 -87 95 -32 54 80 -59z m-404 -27
l1 -102 94 0 c56 0 94 -4 94 -10 0 -6 -31 -10 -72 -11 -40 0 -85 -3 -100 -5
l-28 -5 0 122 c0 67 2 120 5 117 3 -2 5 -50 6 -106z m1784 88 c3 -5 1 -10 -4
-10 -6 0 -11 5 -11 10 0 6 2 10 4 10 3 0 8 -4 11 -10z m-1265 -71 c3 -3 12 -6
20 -7 32 -2 50 -9 71 -28 12 -10 19 -12 14 -5 -12 20 39 -16 170 -122 61 -48
147 -114 193 -144 81 -56 82 -57 82 -100 0 -24 0 -46 1 -50 0 -5 -7 -9 -15
-11 -12 -3 -16 6 -16 37 0 23 -4 41 -10 41 -5 0 -10 -18 -10 -39 0 -43 -1 -45
-42 -55 -28 -6 -28 -6 -28 43 l0 50 -67 48 c-133 93 -232 181 -373 328 -40 42
-47 53 -25 39 17 -10 32 -21 35 -25z m-2325 22 c-9 -8 -36 -10 -30 -2 2 4 11
8 20 8 8 0 13 -3 10 -6z m2525 -13 c0 -6 6 -8 13 -5 8 3 20 -3 27 -13 7 -9 20
-16 29 -13 9 2 35 -12 58 -31 42 -37 77 -50 53 -21 -26 32 5 12 79 -48 42 -35
110 -86 151 -114 96 -65 107 -77 112 -139 l5 -52 -45 -6 c-25 -3 -47 -4 -49
-2 -4 4 -9 41 -12 79 0 10 -9 21 -18 24 -36 13 -152 93 -209 145 -105 93 -229
219 -211 212 9 -3 17 -11 17 -16z m-1360 -14 c0 -8 -5 -12 -10 -9 -6 4 -8 11
-5 16 9 14 15 11 15 -7z m400 12 c0 -3 -4 -8 -10 -11 -5 -3 -10 -1 -10 4 0 6
5 11 10 11 6 0 10 -2 10 -4z m-65 -34 c-3 -3 -11 0 -18 7 -9 10 -8 11 6 5 10
-3 15 -9 12 -12z m1888 -25 c-4 -6 0 -8 10 -4 8 3 21 -1 27 -8 7 -8 16 -13 20
-10 5 3 11 1 15 -5 3 -5 -1 -10 -10 -10 -11 0 -15 -5 -11 -16 3 -9 2 -12 -5
-9 -6 4 -8 13 -5 21 6 15 -10 27 -37 29 -10 1 -25 9 -33 18 -8 9 -9 12 -2 7
20 -16 31 -11 17 8 -13 15 -12 16 3 3 10 -7 15 -18 11 -24z m-2223 -1 c0 -15
7 -26 18 -29 13 -4 13 -5 -4 -6 -17 -1 -23 6 -26 29 -3 17 -1 30 4 30 4 0 8
-11 8 -24z m2060 -105 c46 -34 101 -73 122 -84 36 -21 38 -24 38 -74 0 -29 -3
-53 -7 -54 -5 0 -25 -2 -45 -5 l-38 -5 0 44 c0 51 -7 59 -130 142 -116 79
-114 77 -98 86 7 5 21 6 31 3 25 -8 21 5 -10 39 l-28 30 40 -29 c22 -16 78
-58 125 -93z m-1360 73 c0 -2 -7 -4 -15 -4 -8 0 -15 4 -15 10 0 5 7 7 15 4 8
-4 15 -8 15 -10z m-270 -4 c0 -5 -5 -10 -11 -10 -5 0 -7 5 -4 10 3 6 8 10 11
10 2 0 4 -4 4 -10z m-40 -10 c0 -5 -5 -10 -11 -10 -5 0 -7 5 -4 10 3 6 8 10
11 10 2 0 4 -4 4 -10z m65 0 c3 -5 1 -10 -4 -10 -6 0 -11 5 -11 10 0 6 2 10 4
10 3 0 8 -4 11 -10z m-485 -10 c0 -5 3 -9 8 -9 32 5 132 -3 132 -11 0 -14
-143 -11 -152 4 -11 16 -10 26 2 26 6 0 10 -4 10 -10z m363 3 c-7 -2 -19 -2
-25 0 -7 3 -2 5 12 5 14 0 19 -2 13 -5z m-1853 -16 c0 -5 -6 -7 -13 -4 -7 3
-21 -1 -32 -9 -21 -16 -111 -19 -120 -5 -3 6 1 13 9 18 22 11 156 12 156 0z
m1690 -7 c0 -5 -11 -10 -25 -10 -14 0 -25 5 -25 10 0 6 11 10 25 10 14 0 25
-4 25 -10z m-1660 -4 c0 -3 -4 -8 -10 -11 -5 -3 -10 -1 -10 4 0 6 5 11 10 11
6 0 10 -2 10 -4z m1074 -31 c-4 -8 -11 -15 -16 -15 -6 0 -5 6 2 15 7 8 14 15
16 15 2 0 1 -7 -2 -15z m1071 -169 c0 -168 4 -176 83 -176 l49 0 7 61 c3 34 6
99 6 144 0 68 -3 84 -17 89 -12 5 -13 10 -5 18 6 6 18 8 26 5 14 -6 16 -25 12
-144 -2 -76 -5 -189 -5 -250 l-1 -113 -78 0 -79 0 -6 143 c-9 191 -9 382 1
373 4 -4 7 -72 7 -150z m1992 142 c5 -7 8 -23 7 -35 -3 -36 -5 -39 -13 -18 -5
11 -4 25 1 32 6 7 3 15 -9 22 -10 6 -13 11 -7 11 6 0 16 -6 21 -12z m-762 -7
c-3 -5 -1 -12 4 -16 6 -3 8 -12 4 -20 -4 -11 0 -14 13 -9 11 4 25 11 32 17 8
6 12 6 12 -2 0 -7 4 -10 9 -7 5 3 30 -9 57 -27 50 -34 49 -32 45 -117 -1 -11
-8 -20 -17 -20 -11 0 -15 6 -11 20 7 28 -2 25 -13 -5 -7 -17 -17 -25 -34 -25
-22 0 -24 5 -28 53 -2 28 0 59 6 67 8 12 7 13 -3 3 -11 -9 -25 -3 -67 29 -30
22 -54 43 -54 46 0 3 5 1 12 -6 15 -15 32 -16 23 -2 -6 10 1 30 11 30 3 0 3
-4 -1 -9z m-1400 -41 c-3 -5 3 -11 14 -15 24 -7 31 -59 31 -219 0 -82 -3 -116
-10 -106 -7 11 -10 4 -10 -26 0 -49 -11 -54 -106 -50 -48 2 -65 7 -84 26 -24
24 -25 29 -24 175 0 172 10 203 72 233 33 16 41 17 80 4 23 -8 40 -18 37 -22z
m-791 -187 c-3 -40 -3 -40 -15 -20 -8 13 -7 22 1 33 16 18 16 19 14 -13z m36
3 c0 -3 -4 -8 -10 -11 -5 -3 -10 -1 -10 4 0 6 5 11 10 11 6 0 10 -2 10 -4z
m45 -26 c3 -5 2 -10 -4 -10 -5 0 -13 5 -16 10 -3 6 -2 10 4 10 5 0 13 -4 16
-10z m198 -202 c-3 -43 -10 -78 -15 -78 -6 0 -8 31 -4 78 3 42 5 81 6 87 0 6
3 6 9 0 6 -6 7 -44 4 -87z m-630 56 c3 -3 -1 -25 -10 -47 -8 -23 -16 -49 -18
-57 -2 -8 -11 -34 -20 -57 -16 -40 -20 -43 -55 -43 -22 0 -40 5 -43 13 -3 9
-9 8 -23 -4 -10 -9 -27 -19 -36 -22 -10 -4 -18 -13 -18 -22 0 -8 -7 -15 -16
-15 -8 0 -12 4 -9 10 3 6 -1 7 -9 4 -9 -3 -16 -1 -16 5 0 7 13 17 29 22 16 6
31 19 34 30 5 19 37 28 37 10 0 -5 9 -7 20 -4 11 3 20 12 20 19 0 8 7 14 16
14 11 0 15 -6 11 -20 -7 -27 12 -25 22 3 11 29 -9 41 -57 33 -50 -8 -86 -12
-123 -14 -16 -1 -28 -6 -25 -11 3 -5 0 -11 -8 -14 -9 -4 -13 2 -13 17 0 29 35
41 127 45 64 3 90 13 90 35 0 27 41 76 63 76 13 0 26 -3 30 -6z m903 -31 c-11
-11 -19 6 -11 24 8 17 8 17 12 0 3 -10 2 -21 -1 -24z m-725 7 c5 0 9 -41 9
-91 0 -83 2 -90 18 -84 9 4 31 11 47 17 17 5 37 12 45 16 8 3 19 6 25 6 5 1
15 12 22 26 16 32 41 50 70 50 23 0 31 -14 14 -24 -8 -5 -21 -51 -36 -118 -3
-16 -12 -28 -20 -28 -11 0 -14 7 -9 25 3 14 2 25 -3 25 -6 0 -15 -11 -21 -25
-6 -14 -18 -25 -26 -25 -9 0 -12 -7 -9 -20 3 -11 10 -20 16 -20 6 0 7 -3 3 -7
-3 -4 -38 -6 -76 -6 -61 1 -70 -1 -76 -19 -9 -31 13 -47 25 -17 8 19 10 8 9
-46 -1 -64 -2 -66 -8 -25 l-7 45 -1 -60 c-1 -45 1 -56 9 -45 9 13 10 12 5 -2
-8 -25 3 -48 19 -42 11 5 14 -13 14 -85 0 -51 -4 -89 -8 -86 -5 2 -85 21 -177
40 -93 19 -194 42 -224 51 -30 9 -65 18 -77 21 -13 3 -23 10 -23 15 0 5 -7 16
-15 24 -10 10 -15 35 -15 69 0 58 12 70 56 59 13 -3 24 -2 24 2 0 5 11 9 25 9
14 0 25 -3 25 -7 0 -13 58 -9 63 5 3 7 6 5 6 -5 1 -12 9 -18 25 -18 14 0 27
-4 30 -8 8 -13 46 -7 58 9 7 10 8 7 4 -12 -4 -18 -1 -29 8 -32 19 -8 26 1 26
35 0 15 4 28 9 28 6 0 7 -16 4 -35 -5 -33 -4 -35 22 -35 19 0 28 -6 32 -21 6
-20 6 -20 29 2 26 24 30 69 15 162 -9 56 7 81 34 53 19 -18 45 -21 45 -5 0 8
5 8 15 -1 8 -7 15 -11 16 -9 0 2 1 21 3 42 3 43 -8 46 -88 22 -55 -17 -117
-21 -81 -5 13 6 15 9 5 9 -8 0 -22 -4 -30 -9 -11 -7 -11 -10 -2 -10 10 0 11
-14 6 -62 -6 -54 -5 -61 9 -55 9 3 18 3 21 -1 2 -4 -6 -9 -20 -10 -22 -2 -24
2 -24 42 0 46 -12 59 -48 50 -13 -4 -18 -12 -15 -28 3 -13 -2 -29 -10 -38 -8
-8 -17 -23 -21 -34 -3 -10 -3 5 0 34 2 29 7 58 10 65 3 8 -5 19 -18 26 -22 11
-21 11 8 7 63 -10 71 -2 76 78 3 44 12 84 23 103 18 31 59 54 83 47 8 -2 18
-4 23 -4z m3059 -11 c58 -6 107 -14 110 -19 3 -4 20 -10 39 -13 19 -3 38 -12
42 -19 5 -7 9 -8 9 -3 0 6 5 3 10 -6 5 -8 7 -24 5 -35 -2 -10 -4 -63 -4 -116
l-1 -98 -70 0 c-49 0 -72 4 -76 13 -3 9 -23 13 -56 14 -30 0 -54 5 -56 12 -2
6 -8 9 -13 5 -5 -3 -9 1 -9 9 0 8 7 18 16 21 14 5 15 16 9 72 -5 47 -4 64 4
60 7 -5 11 3 11 22 0 28 -3 30 -52 36 -88 11 -118 18 -118 26 0 5 9 6 21 3 15
-4 22 0 26 16 4 15 11 20 27 16 11 -3 68 -10 126 -16z m-209 2 c-7 -5 -10 -14
-7 -20 4 -6 0 -11 -8 -11 -9 0 -16 9 -16 20 0 14 7 20 23 20 16 0 18 -3 8 -9z
m-4091 -15 c0 -3 -4 -8 -10 -11 -5 -3 -10 -1 -10 4 0 6 5 11 10 11 6 0 10 -2
10 -4z m1374 -31 c-23 -17 -34 -19 -34 -5 0 21 4 25 23 22 14 -3 17 0 12 10
-6 10 -5 11 5 1 12 -11 11 -15 -6 -28z m-1354 11 c0 -2 -7 -9 -15 -16 -13 -11
-14 -10 -9 4 5 14 24 23 24 12z m4110 -31 c0 -12 -19 -12 -23 0 -4 9 -1 12 9
8 7 -3 14 -7 14 -8z m449 -10 c-26 -15 -50 -9 -43 9 3 8 17 11 36 8 l31 -5
-24 -12z m-342 9 c-3 -3 -12 -4 -19 -1 -8 3 -5 6 6 6 11 1 17 -2 13 -5z
m-4217 -23 c0 -14 -29 -21 -36 -9 -4 7 -3 8 4 4 7 -4 12 -2 12 3 0 6 5 11 10
11 6 0 10 -4 10 -9z m3570 -17 c0 -9 8 -23 17 -30 10 -7 15 -15 11 -19 -10
-10 -48 27 -48 47 0 10 5 18 10 18 6 0 10 -7 10 -16z m1150 6 c0 -5 3 -9 8 -9
25 4 62 -3 62 -12 0 -5 -4 -8 -9 -5 -5 3 -11 0 -14 -8 -6 -16 26 -50 36 -39 4
3 7 1 7 -6 0 -7 5 -9 12 -5 6 4 8 3 4 -4 -3 -5 -1 -12 5 -14 7 -2 5 -9 -5 -17
-14 -12 -16 -12 -10 3 6 17 -12 22 -32 8 -15 -9 -3 -37 16 -37 8 0 14 -6 13
-12 -2 -7 2 -13 7 -13 6 0 10 4 10 9 0 5 12 8 28 8 26 0 26 0 -7 -14 -34 -14
-60 -20 -136 -28 -22 -2 -69 -11 -105 -18 -43 -10 -69 -11 -77 -4 -9 6 -13 42
-13 113 l0 103 28 4 c57 9 172 7 172 -3z m-2937 -20 c137 0 126 -21 -13 -24
-127 -3 -150 1 -150 24 0 16 4 17 32 9 18 -5 77 -9 131 -9z m1984 3 c0 -15
-11 -16 -87 -5 l-55 7 55 5 c78 8 87 8 87 -7z m348 -44 c-8 -23 -16 -83 -17
-133 l-1 -91 -10 128 c-10 144 -7 163 22 147 19 -10 19 -13 6 -51z m90 19 c-4
-24 -6 -62 -6 -85 2 -48 -7 -57 -31 -31 -10 10 -14 18 -10 18 4 0 9 20 10 45
1 25 -2 44 -6 41 -5 -3 -6 8 -4 25 3 23 9 29 29 29 25 0 25 -2 18 -42z m-405
28 c0 -3 -4 -8 -10 -11 -5 -3 -10 -1 -10 4 0 6 5 11 10 11 6 0 10 -2 10 -4z
m-2985 -16 c3 -5 2 -10 -4 -10 -5 0 -13 5 -16 10 -3 6 -2 10 4 10 5 0 13 -4
16 -10z m1232 -82 c-2 -18 -4 -4 -4 32 0 36 2 50 4 33 2 -18 2 -48 0 -65z
m-1707 58 c0 -7 -26 -19 -58 -29 -70 -21 -72 -21 -72 -2 0 8 12 17 28 20 15 3
38 9 52 13 35 11 50 10 50 -2z m3030 -35 c0 -8 7 -22 16 -32 15 -17 15 -18 -4
-16 -15 1 -23 12 -31 44 -6 23 -11 45 -11 50 1 14 30 -30 30 -46z m-917 28
c-14 -14 -116 -14 -121 0 -3 9 13 12 62 10 37 -1 63 -6 59 -10z m-757 -119 c1
-94 0 -99 -22 -103 -20 -3 -22 1 -29 57 -4 40 -3 62 4 64 6 2 9 8 5 13 -3 5 0
9 5 9 6 0 11 5 11 11 0 5 -5 7 -12 3 -8 -5 -9 -2 -5 10 4 10 7 24 7 31 0 8 7
11 18 8 15 -4 17 -18 18 -103z m1591 83 c15 -10 29 -26 31 -34 4 -12 3 -12
-11 -1 -9 7 -40 15 -69 18 -29 3 -64 6 -78 9 -14 2 -32 0 -40 -6 -8 -5 -10 -9
-5 -9 66 -4 109 -11 123 -20 13 -8 0 -9 -50 -5 -46 5 -68 3 -68 -4 0 -26 -39
15 -42 45 l-4 32 94 -2 c74 -2 98 -7 119 -23z m-2377 10 c-1 -18 -18 -35 -24
-24 -4 6 -4 16 -1 21 7 12 25 13 25 3z m3234 -8 c-4 -8 -11 -12 -16 -9 -6 4
-5 10 3 15 19 12 19 11 13 -6z m-3289 -17 c-4 -11 -7 -38 -7 -60 1 -21 -3 -38
-7 -38 -5 0 -7 24 -6 53 4 69 3 67 16 67 6 0 8 -9 4 -22z m2753 -128 c-1 -106
-2 -116 -8 -65 -12 92 -12 223 0 205 5 -8 9 -71 8 -140z m-3454 77 l6 -36 -45
-7 c-25 -3 -52 -3 -61 0 -15 6 -15 8 1 26 10 11 33 22 51 26 19 3 34 9 34 13
0 11 -54 7 -62 -4 -5 -6 -8 -5 -8 3 0 6 -8 12 -17 13 -10 0 2 6 27 12 53 14
66 7 74 -46z m810 54 c4 -5 -3 -7 -14 -4 -23 6 -26 13 -6 13 8 0 17 -4 20 -9z
m2064 -13 c26 -22 10 -25 -55 -12 -36 8 -68 12 -71 10 -11 -12 11 -58 34 -68
18 -8 21 -14 12 -20 -28 -17 -46 -8 -60 35 -8 23 -18 49 -22 57 -5 13 5 14 71
12 43 -2 84 -8 91 -14z m-3094 -29 c-6 -11 -24 -2 -24 11 0 5 7 7 15 4 8 -4
12 -10 9 -15z m957 -99 c-9 -20 -10 -14 -6 30 7 92 9 97 12 45 2 -28 -1 -62
-6 -75z m-986 67 c7 -58 15 -69 46 -63 16 3 44 8 62 11 l32 5 -32 -12 c-18 -6
-33 -14 -33 -19 0 -8 -55 -3 -105 11 -16 5 -41 11 -55 14 -20 4 -25 12 -27 41
-3 35 4 41 45 36 6 -1 20 3 30 8 21 12 34 1 37 -32z m282 11 c-3 -7 -5 -2 -5
12 0 14 2 19 5 13 2 -7 2 -19 0 -25z m1232 20 c-1 -7 -1 -59 0 -114 l1 -101
38 -7 c74 -12 97 -16 119 -21 25 -6 43 17 36 45 -3 10 0 21 6 24 7 5 11 -8 11
-38 0 -25 5 -46 10 -46 6 0 10 12 10 26 0 27 16 65 33 75 5 4 23 2 39 -3 17
-6 56 -8 89 -4 l59 6 0 -186 0 -186 -27 7 c-15 3 -81 18 -147 32 -67 14 -137
29 -156 33 -19 4 -59 13 -89 19 -132 27 -127 24 -135 92 -8 82 -7 147 2 134 4
-6 26 -12 50 -14 l42 -3 0 106 c0 67 -4 106 -10 106 -6 0 -5 6 2 15 16 18 19
18 17 3z m-1682 -13 c8 -8 19 -12 25 -9 6 4 8 -3 6 -17 -4 -28 -22 -28 -84 2
-22 10 -49 19 -60 20 -15 1 -14 3 6 9 41 13 91 11 107 -5z m1253 -17 c0 -21
-3 -29 -10 -22 -5 5 -7 19 -4 32 9 31 14 27 14 -10z m69 -42 c-9 -8 -10 -7 -5
7 3 10 7 26 7 35 1 9 4 6 6 -7 3 -13 -1 -28 -8 -35z m1961 26 l-30 -3 0 -71
c0 -90 -7 -85 -12 7 -3 70 -3 70 25 73 15 2 27 9 27 15 0 7 4 6 10 -3 8 -12 3
-16 -20 -18z m85 6 c-16 -4 -31 -5 -33 -3 -8 7 42 23 53 17 5 -3 -4 -9 -20
-14z m-2305 -8 c0 -11 -4 -20 -9 -20 -5 0 -7 9 -4 20 3 11 7 20 9 20 2 0 4 -9
4 -20z m347 -2 c-3 -8 -6 -5 -6 6 -1 11 2 17 5 13 3 -3 4 -12 1 -19z m479 10
c3 -4 -3 -11 -14 -17 -21 -11 -32 -6 -32 16 0 13 33 13 46 1z m754 -24 c14
-35 2 -94 -17 -94 -10 0 -13 6 -9 16 3 9 6 36 6 60 0 50 6 56 20 18z m-2423
10 c-3 -3 -12 -4 -19 -1 -8 3 -5 6 6 6 11 1 17 -2 13 -5z m234 -57 c-1 -28 -4
-54 -7 -56 -2 -2 -23 3 -46 11 -24 9 -65 21 -91 28 -26 7 -44 16 -40 20 17 15
91 28 102 17 13 -13 44 -1 35 15 -5 7 0 9 14 6 12 -3 21 -3 20 1 -2 15 3 24 9
17 4 -3 6 -30 4 -59z m746 31 c-3 -8 -6 -5 -6 6 -1 11 2 17 5 13 3 -3 4 -12 1
-19z m395 -22 c-4 -6 -7 -26 -7 -43 0 -18 -4 -34 -10 -35 -9 -3 -15 87 -7 105
2 4 10 3 18 -4 7 -6 10 -16 6 -23z m995 -14 c-4 -48 -13 -62 -40 -62 -12 0
-29 -5 -37 -11 -11 -8 2 -9 49 -6 35 3 67 9 70 14 6 9 18 9 86 -2 22 -3 54 -6
72 -7 21 -1 33 -7 36 -18 7 -25 -4 -38 -33 -36 -19 1 -24 -4 -24 -24 0 -20 4
-25 24 -23 35 3 62 9 83 18 9 4 26 5 37 2 10 -3 20 -1 22 3 2 5 10 10 18 12 8
2 17 6 20 9 8 10 110 17 110 8 0 -5 -7 -9 -15 -9 -8 0 -15 -4 -15 -9 0 -5 14
-9 30 -9 18 1 30 6 30 15 0 7 4 13 10 13 5 0 7 -7 4 -15 -5 -12 3 -15 35 -15
23 0 43 1 46 3 2 1 11 -7 19 -18 9 -11 16 -14 16 -7 0 6 4 12 10 12 5 0 7 -7
4 -15 -4 -8 -2 -15 4 -15 5 0 12 7 16 15 13 34 26 12 26 -43 l0 -59 -39 -11
c-21 -7 -49 -12 -63 -12 -13 0 -60 -9 -104 -21 -43 -11 -90 -22 -104 -24 -44
-7 -123 -23 -198 -41 -40 -9 -76 -14 -80 -10 -4 4 -8 69 -10 144 -5 200 -22
191 -22 -11 0 -127 -3 -167 -12 -168 -7 0 -22 -2 -33 -4 -11 -2 -36 -6 -55 -8
-20 -2 -40 -6 -46 -9 -29 -18 -118 -20 -191 -3 -99 22 -173 45 -173 53 0 4 -5
36 -10 72 -5 36 -10 117 -11 180 -2 103 -1 115 15 118 16 4 16 4 -1 17 -16 12
-13 14 28 20 25 4 123 5 217 3 158 -3 172 -2 172 15 0 9 2 17 6 17 3 0 3 -17
1 -38z m567 -20 c-4 -9 -6 -20 -6 -24 1 -5 -3 -8 -9 -8 -6 0 -8 7 -5 16 3 9 9
28 13 42 5 21 8 23 11 9 2 -10 0 -26 -4 -35z m-1744 8 c0 -11 -7 -20 -15 -20
-13 0 -14 4 -5 20 6 11 13 20 15 20 3 0 5 -9 5 -20z m2010 -80 c0 -5 -5 -10
-11 -10 -5 0 -7 5 -4 10 3 6 8 10 11 10 2 0 4 -4 4 -10z m485 -21 c0 -8 8 -13
18 -11 9 2 17 -2 17 -8 0 -13 -16 -13 -41 0 -21 12 -27 44 -6 38 6 -3 12 -11
12 -19z m-67 -8 c16 -1 22 -7 22 -26 0 -20 -6 -25 -37 -31 -21 -3 -66 -12
-101 -20 -35 -8 -82 -14 -105 -14 -23 0 -57 -4 -74 -9 -18 -5 -49 -11 -70 -12
-21 -2 -40 -6 -43 -10 -3 -3 -18 -9 -35 -13 l-30 -6 25 15 c30 17 21 20 -14 4
-14 -7 -23 -16 -20 -20 3 -5 -4 -9 -15 -9 -14 0 -19 6 -17 23 2 13 6 29 10 35
4 7 2 12 -3 12 -6 0 -10 17 -10 38 1 20 3 29 6 20 2 -10 10 -15 19 -11 7 3 12
8 9 12 -4 7 176 7 200 0 6 -1 21 1 35 4 14 4 51 9 83 11 32 2 61 6 63 9 2 2
21 3 42 1 20 -1 47 -3 60 -3z"/>
<path d="M3265 4970 c-11 -5 -32 -9 -47 -9 -15 -1 -30 -6 -33 -11 -6 -9 -12
-106 -27 -410 l-3 -55 111 4 c110 3 111 3 109 -20 -2 -28 -21 -35 -118 -44
-58 -6 -77 -11 -77 -22 0 -12 16 -13 103 -7 56 3 105 12 109 18 4 6 8 77 8
159 l0 147 -30 0 c-39 0 -39 19 0 27 l31 6 -3 111 -3 111 -55 2 c-30 1 -64 -2
-75 -7z m53 -197 c-3 -170 -5 -188 -20 -191 -16 -3 -18 5 -18 57 0 54 -2 61
-20 61 -27 0 -25 18 3 22 21 3 22 8 24 98 3 107 9 140 23 140 7 0 9 -67 8
-187z m-51 -189 c-3 -3 -12 -4 -19 -1 -8 3 -5 6 6 6 11 1 17 -2 13 -5z m35
-39 c0 -5 -5 -11 -11 -13 -6 -2 -11 4 -11 13 0 9 5 15 11 13 6 -2 11 -8 11
-13z"/>
<path d="M5015 4970 c3 -5 8 -10 11 -10 2 0 4 5 4 10 0 6 -5 10 -11 10 -5 0
-7 -4 -4 -10z"/>
<path d="M3843 3105 c-3 -9 -3 -18 -1 -21 3 -3 8 4 11 16 6 23 -1 27 -10 5z"/>
<path d="M2758 2744 c2 -229 -1 -330 -9 -340 -12 -15 0 -19 96 -29 32 -3 69
-8 81 -11 21 -5 21 -5 16 143 -2 81 -9 151 -15 154 -5 4 -6 12 -3 18 5 7 -2
11 -18 11 -33 0 -44 20 -16 27 18 5 21 11 16 36 -3 16 -6 61 -6 99 0 44 -4 67
-10 63 -6 -4 -9 3 -7 15 2 12 10 25 17 30 12 7 39 79 40 103 0 4 -42 7 -92 7
l-93 0 3 -326z m148 -249 c-3 -8 -1 -15 4 -15 6 0 10 -5 10 -11 0 -5 -4 -8 -9
-5 -5 3 -11 -3 -14 -14 -4 -14 -10 -18 -22 -14 -15 6 -15 8 -2 15 8 5 18 20
21 34 4 14 9 25 12 25 3 0 4 -7 0 -15z"/>
<path d="M4092 3008 l3 -62 62 0 63 -1 0 56 0 56 -46 7 c-88 12 -85 14 -82
-56z"/>
<path d="M3229 2858 c0 -112 -3 -263 -5 -337 -2 -74 -2 -142 1 -152 6 -19 30
-24 148 -34 l67 -6 0 157 c0 87 -2 155 -4 153 -2 -2 -7 -58 -10 -124 -3 -66
-5 -123 -5 -127 -1 -5 -6 -8 -12 -8 -7 0 -8 36 -4 115 5 100 4 115 -9 115 -9
0 -16 5 -16 11 0 6 7 9 15 5 8 -3 15 -1 15 4 0 5 -17 10 -37 12 -41 3 -51 18
-28 42 9 9 12 16 7 16 -15 0 -15 192 0 202 10 6 10 8 1 8 -19 0 -15 48 5 59 9
6 12 11 5 11 -17 0 -4 30 12 30 16 0 45 27 45 41 0 5 -43 9 -95 9 l-95 0 -1
-202z m160 -290 c0 -13 -4 -32 -9 -43 -7 -15 -9 -10 -9 23 -1 23 4 42 9 42 6
0 10 -10 9 -22z m-6 -100 c10 -27 2 -73 -13 -73 -17 0 -24 51 -9 60 5 4 7 11
4 16 -4 5 -2 9 3 9 6 0 12 -6 15 -12z"/>
<path d="M4090 2798 l0 -108 65 0 65 0 0 109 0 108 -65 -1 -65 -1 0 -107z"/>
<path d="M6227 1796 c-4 -10 -1 -13 8 -9 8 3 12 9 9 14 -7 12 -11 11 -17 -5z"/>
<path d="M6347 1613 c-3 -5 -1 -17 4 -28 7 -17 8 -17 8 8 1 27 -4 34 -12 20z"/>
<path d="M5982 1505 c0 -16 2 -22 5 -12 2 9 2 23 0 30 -3 6 -5 -1 -5 -18z"/>
<path d="M2828 2203 c7 -3 16 -2 19 1 4 3 -2 6 -13 5 -11 0 -14 -3 -6 -6z"/>
<path d="M2720 2160 c0 -5 5 -10 11 -10 5 0 7 5 4 10 -3 6 -8 10 -11 10 -2 0
-4 -4 -4 -10z"/>
<path d="M3360 2161 c0 -5 7 -11 14 -14 10 -4 13 -1 9 9 -6 15 -23 19 -23 5z"/>
<path d="M3466 2145 c4 -8 10 -15 15 -15 4 0 6 7 3 15 -4 8 -10 15 -15 15 -4
0 -6 -7 -3 -15z"/>
<path d="M2898 2133 c7 -3 16 -2 19 1 4 3 -2 6 -13 5 -11 0 -14 -3 -6 -6z"/>
<path d="M3320 2130 c0 -5 5 -10 11 -10 5 0 7 5 4 10 -3 6 -8 10 -11 10 -2 0
-4 -4 -4 -10z"/>
<path d="M3445 2130 c-3 -6 1 -13 10 -16 21 -9 26 -2 10 13 -9 8 -16 9 -20 3z"/>
<path d="M3365 2120 c-3 -6 1 -7 9 -4 18 7 21 14 7 14 -6 0 -13 -4 -16 -10z"/>
<path d="M3098 1523 c-5 -26 -3 -73 4 -73 4 0 8 18 8 40 0 35 -7 54 -12 33z"/>
<path d="M5572 1564 c10 -10 20 -15 24 -12 3 4 -5 12 -18 18 -22 12 -22 12 -6
-6z"/>
<path d="M3155 720 c-3 -5 1 -10 9 -10 8 0 18 5 21 10 3 6 -1 10 -9 10 -8 0
-18 -4 -21 -10z"/>
<path d="M4650 680 c-21 -7 -18 -8 18 -9 26 -1 41 3 37 9 -7 11 -19 11 -55 0z"/>
<path d="M4260 585 c-24 -14 -24 -14 15 -8 54 8 80 22 40 22 -16 0 -41 -6 -55
-14z"/>
<path d="M5423 6063 c-10 -3 -13 -44 -13 -154 l0 -150 48 3 47 3 3 146 c2 145
2 147 -20 153 -26 7 -48 7 -65 -1z"/>
<path d="M5000 5850 c0 -163 -1 -161 56 -140 l27 11 -7 131 c-4 73 -10 136
-12 140 -3 4 -18 8 -35 8 l-29 0 0 -150z"/>
<path d="M5284 5925 c3 -9 6 -52 6 -96 l0 -79 33 0 c54 0 58 8 55 101 l-3 84
-49 3 c-42 3 -48 1 -42 -13z"/>
<path d="M5130 5832 c0 -57 -4 -93 -12 -101 -11 -10 -4 -11 37 -6 28 4 53 9
58 12 4 2 7 44 7 94 l0 89 -45 0 -45 0 0 -88z"/>
<path d="M4887 5853 c-3 -5 -4 -26 -2 -48 1 -22 3 -57 4 -78 1 -37 2 -38 34
-35 l32 3 3 83 3 82 -35 0 c-19 0 -37 -3 -39 -7z"/>
<path d="M3808 5403 c6 -2 18 -2 25 0 6 3 1 5 -13 5 -14 0 -19 -2 -12 -5z"/>
<path d="M3645 5391 c-3 -5 -1 -12 4 -15 5 -3 11 1 15 9 6 16 -9 21 -19 6z"/>
<path d="M3290 5330 c0 -5 5 -10 10 -10 6 0 10 5 10 10 0 6 -4 10 -10 10 -5 0
-10 -4 -10 -10z"/>
<path d="M2795 5250 c-3 -5 1 -10 9 -10 9 0 16 5 16 10 0 6 -4 10 -9 10 -6 0
-13 -4 -16 -10z"/>
<path d="M5580 5220 c0 -5 5 -10 10 -10 6 0 10 5 10 10 0 6 -4 10 -10 10 -5 0
-10 -4 -10 -10z"/>
<path d="M2827 4916 c-31 -7 -62 -17 -69 -24 -7 -7 -12 -91 -16 -234 l-4 -224
68 7 c84 9 104 5 104 -25 0 -19 -4 -22 -36 -18 -26 3 -35 1 -30 -7 5 -7 -4
-11 -28 -11 -44 0 -66 -9 -66 -26 0 -12 13 -13 68 -9 37 3 82 8 100 11 l32 5
0 106 0 105 -25 -4 c-14 -3 -25 -3 -25 -1 0 2 11 8 25 13 21 8 25 16 25 50 0
34 -3 40 -21 40 -46 0 -61 -18 -58 -73 3 -42 0 -53 -14 -55 -14 -3 -17 5 -17
53 0 52 -2 57 -20 52 -29 -8 -24 8 7 22 22 10 24 14 12 22 -8 5 -9 9 -3 9 8 0
12 26 13 76 1 54 6 80 17 91 14 14 15 7 12 -81 l-3 -96 28 0 c15 0 29 6 32 13
2 6 5 60 8 120 l4 107 -31 -1 c-17 0 -57 -6 -89 -13z"/>
<path d="M3470 4222 c-114 -4 -501 -33 -635 -47 l-130 -14 100 4 c55 3 172 12
260 20 88 8 244 18 348 21 103 4 187 10 187 13 0 7 -23 8 -130 3z"/>
<path d="M3275 4173 c-204 -13 -658 -53 -664 -58 -7 -8 56 -5 234 10 94 8 267
19 385 25 118 7 247 15 285 20 61 6 54 7 -60 7 -71 0 -152 -2 -180 -4z"/>
<path d="M2610 4151 c0 -8 79 -3 89 5 2 2 -17 4 -42 4 -26 0 -47 -4 -47 -9z"/>
<path d="M4090 3995 l0 -75 65 0 65 0 1 43 c2 63 -2 91 -13 98 -6 4 -34 7 -64
8 l-54 1 0 -75z"/>
<path d="M3905 4048 c-5 -19 -14 -701 -8 -715 5 -15 67 -16 128 -4 22 5 34 9
28 10 -21 2 -15 17 7 17 13 0 20 -7 20 -18 0 -10 7 -18 16 -18 8 0 13 4 9 9
-3 5 -1 12 5 16 5 3 10 1 10 -5 0 -7 6 -8 18 -1 9 5 19 10 22 12 3 1 15 -3 27
-9 14 -8 24 -9 28 -2 8 13 14 244 8 293 l-6 37 -49 0 c-30 0 -47 4 -43 10 3 6
26 10 51 10 l44 0 0 110 c0 64 -4 110 -10 110 -5 0 -7 -7 -4 -15 5 -12 -5 -15
-55 -15 l-61 0 0 -125 c0 -104 -2 -125 -15 -125 -8 0 -15 9 -15 21 0 18 -4 20
-44 14 -26 -4 -46 -3 -50 3 -7 11 36 23 69 19 19 -2 20 5 23 96 l3 97 -53 2
-53 1 50 7 c57 8 51 12 -15 11 -35 0 -40 2 -25 9 11 5 37 9 58 9 l37 1 0 70 0
70 -75 0 c-52 0 -77 -4 -80 -12z m185 -564 c0 -70 -3 -95 -12 -92 -11 4 -21
172 -11 191 14 25 23 -16 23 -99z m-100 -134 c0 -5 -7 -7 -15 -4 -8 4 -15 8
-15 10 0 2 7 4 15 4 8 0 15 -4 15 -10z m37 -6 c-3 -3 -12 -4 -19 -1 -8 3 -5 6
6 6 11 1 17 -2 13 -5z"/>
<path d="M3304 4033 l-82 -4 2 -347 1 -347 55 3 c82 4 130 13 130 23 0 5 -11
7 -23 4 -22 -6 -23 -4 -19 24 4 31 15 40 27 21 3 -5 1 -10 -4 -10 -6 0 -11 -4
-11 -10 0 -5 7 -10 16 -10 13 0 15 15 14 93 -1 50 1 100 5 110 11 27 -9 42
-54 41 -43 -1 -55 10 -22 21 18 5 20 17 23 121 2 88 0 114 -10 114 -19 0 3 37
28 45 18 6 26 30 33 95 2 17 -2 17 -109 13z"/>
<path d="M2773 3993 c-10 -4 -13 -80 -13 -335 l0 -331 81 8 c45 3 87 9 93 11
8 3 12 46 13 128 l1 124 -50 6 c-49 7 -55 20 -14 28 17 3 19 13 21 88 2 103 1
97 23 104 9 3 0 4 -20 1 -27 -3 -38 0 -38 10 0 7 6 16 13 18 6 3 3 6 -8 6 -16
1 -13 6 15 23 45 29 50 36 50 81 l0 37 -77 -1 c-43 0 -84 -3 -90 -6z m153
-490 c-10 -10 -19 5 -10 18 6 11 8 11 12 0 2 -7 1 -15 -2 -18z m4 -23 c0 -5
-4 -10 -10 -10 -5 0 -10 5 -10 10 0 6 5 10 10 10 6 0 10 -4 10 -10z m-4 -57
c-10 -10 -19 5 -10 18 6 11 8 11 12 0 2 -7 1 -15 -2 -18z m-14 -13 c5 0 8 -6
5 -14 -3 -8 -1 -17 6 -20 7 -2 2 -5 -11 -5 -13 -1 -21 3 -18 8 4 5 1 11 -5 13
-8 3 -9 12 -3 28 6 20 9 21 12 8 2 -10 8 -18 14 -18z"/>
<path d="M4098 3893 c7 -3 16 -2 19 1 4 3 -2 6 -13 5 -11 0 -14 -3 -6 -6z"/>
<path d="M2755 3240 c-3 -5 -1 -10 4 -10 6 0 11 5 11 10 0 6 -2 10 -4 10 -3 0
-8 -4 -11 -10z"/>
<path d="M2860 3240 c25 -8 157 -13 149 -6 -2 2 -42 6 -89 8 -47 3 -74 2 -60
-2z"/>
<path d="M4400 3247 c9 -8 270 -15 270 -7 0 4 -62 9 -137 9 -76 1 -135 0 -133
-2z"/>
<path d="M3258 3233 c7 -3 16 -2 19 1 4 3 -2 6 -13 5 -11 0 -14 -3 -6 -6z"/>
<path d="M3783 3223 c15 -2 37 -2 50 0 12 2 0 4 -28 4 -27 0 -38 -2 -22 -4z"/>
<path d="M1923 2353 c-7 -2 -13 -14 -13 -26 0 -11 -9 -30 -19 -41 -11 -12 -23
-33 -26 -48 -6 -23 -4 -28 11 -28 11 0 52 -3 92 -7 60 -5 72 -3 72 9 0 15 -90
147 -100 147 -3 0 -11 -3 -17 -6z"/>
<path d="M2080 1538 c0 -4 7 -8 15 -8 8 0 15 4 15 8 0 5 -7 9 -15 9 -8 0 -15
-4 -15 -9z"/>
<path d="M2050 1490 c0 -5 5 -10 11 -10 5 0 7 5 4 10 -3 6 -8 10 -11 10 -2 0
-4 -4 -4 -10z"/>
<path d="M2079 1452 c-1 -4 -2 -41 -4 -83 -1 -41 -7 -85 -14 -97 -9 -17 -9
-22 1 -23 7 0 22 -2 34 -3 18 -2 20 1 14 39 -4 24 -3 53 2 65 10 28 46 60 66
60 9 0 12 6 8 17 -4 9 -2 19 4 23 5 3 -17 7 -50 7 -33 1 -60 -2 -61 -5z"/>
<path d="M6725 1419 c-4 -6 -5 -12 -2 -15 2 -3 7 2 10 11 7 17 1 20 -8 4z"/>
<path d="M7271 1403 c1 -10 5 -29 9 -43 l8 -25 3 28 c1 15 2 32 3 39 1 6 -5
13 -11 16 -8 2 -13 -4 -12 -15z"/>
<path d="M2555 1280 c-19 -8 -19 -9 3 -9 12 -1 22 4 22 9 0 6 -1 10 -2 9 -2 0
-12 -4 -23 -9z"/>
<path d="M7270 1259 c0 -17 4 -28 10 -24 11 7 9 55 -2 55 -4 0 -8 -14 -8 -31z"/>
<path d="M2520 1250 c0 -5 7 -10 16 -10 8 0 12 5 9 10 -3 6 -10 10 -16 10 -5
0 -9 -4 -9 -10z"/>
<path d="M1711 1138 c2 -102 6 -94 11 20 2 39 0 72 -4 72 -4 0 -7 -42 -7 -92z"/>
<path d="M2156 1185 c-3 -8 -1 -15 4 -15 6 0 10 7 10 15 0 8 -2 15 -4 15 -2 0
-6 -7 -10 -15z"/>
<path d="M2582 965 c0 -46 2 -54 8 -33 4 14 4 41 0 60 -7 28 -8 24 -8 -27z"/>
</g>
</svg>
